<?xml version="1.0" encoding="utf-8"?>
<!DOCTYPE svg PUBLIC "-//W3C//DTD SVG 1.0//EN" "http://www.w3.org/TR/2001/REC-SVG-20010904/DTD/svg10.dtd">
<svg version="1.0" xmlns="http://www.w3.org/2000/svg" width="180" height="180" viewBox="0 0 996 1162" preserveAspectRatio="xMidYMid meet">
 <g fill="#c8a867">
  <path d="M0 581 l0 -581 498 0 498 0 0 581 0 581 -498 0 -498 0 0 -581z m547.8 471 c42.3 -5.6 84.6 -17.1 122.3 -33.1 18.7 -8 45.2 -21.6 58.7 -30.2 5.7 -3.5 12.8 -7.9 15.6 -9.6 27.9 -17.2 75.2 -59.4 100.3 -89.6 40.2 -48.2 69.9 -101.4 89 -159.2 9.3 -28.1 17.6 -67.9 20.8 -98.5 6 -60.2 -2.2 -127.8 -22.9 -188.4 -19.6 -57.4 -46.7 -105.5 -85.9 -152.9 -13.1 -15.8 -45.2 -47.9 -60.8 -60.8 -75.9 -62.7 -166.5 -98.9 -266.1 -106.2 -28.2 -2.1 -73.6 0.6 -105.8 6.3 -32.2 5.6 -73.9 17.8 -102.7 30.1 -94.5 40.3 -174 110.8 -225.3 200.3 -32.1 55.8 -51.7 116.6 -59.6 183.9 -2.6 21.6 -2.6 65.7 0 87.2 11 94 45.5 175.5 106.2 250.6 21.1 26.1 52.6 56 82.7 78.3 71.7 53.3 155.7 85.5 242.3 92.9 7.2 0.6 15 1.2 17.6 1.5 13.2 1.1 58.3 -0.4 73.7 -2.5z"/>
  <path d="M455.5 1035.3 c-43.5 -3.4 -81.4 -11.9 -121.9 -27.1 -92.9 -35 -172.8 -100.4 -224.9 -183.9 -33.2 -53.3 -56.8 -118.6 -64.4 -178.4 -18.2 -140.9 30.5 -281 131.8 -379.2 68.6 -66.6 156.4 -110.3 246.9 -122.8 31.6 -4.4 89.7 -5.5 117.9 -2.3 87.5 10 166 43.4 233.2 99 16.4 13.6 50.2 47.7 62.9 63.5 66.2 82.2 100.9 180.6 101.1 285.3 0 70.6 -15.7 137.2 -47.1 201 -47 95 -124.7 168.8 -223 211.4 -41.5 17.9 -85.8 29.2 -132 33.2 -19 1.7 -61.7 1.9 -80.4 0.4z m74.5 -488.2 l-0.3 -297.6 -43.8 -0.3 -43.9 -0.2 0 297.8 0 297.8 44.1 0 44.1 0 -0.2 -297.5z"/>
 </g>
 <g fill="#020303">
  <path d="M471 1057.6 c-2.6 -0.2 -10.5 -0.8 -17.6 -1.5 -143.4 -12.1 -277.2 -92.5 -356.3 -213.9 -42 -64.5 -65.9 -130.7 -74.9 -207.8 -2.6 -21.8 -2.6 -71.6 0 -93.4 6.5 -56.3 20.6 -105.6 44.1 -154.6 39.6 -82.8 105.1 -154.1 184.7 -201.2 29.9 -17.6 57.6 -30.2 91.9 -41.6 46.9 -15.6 87.3 -22.4 140.1 -23.9 99.2 -2.6 199.6 28.9 281.7 88.6 35.6 25.8 73.1 63.2 102.2 101.8 46 60.9 78.3 140.8 88.6 218.6 7.7 58.2 4.7 115.4 -9.2 171.2 -17.7 71.4 -49.9 134.5 -98.4 192.6 -25.1 30.2 -72.4 72.4 -100.3 89.6 -2.8 1.8 -9.9 6.1 -15.6 9.6 -40.2 25.4 -97.2 47.6 -149.4 58 -29.2 5.9 -44.9 7.5 -77.3 7.9 -16.3 0.1 -31.6 0.1 -34.2 -0.1z m61.5 -25.8 c46.4 -4 90.6 -15.3 132.2 -33.2 118.2 -51.3 206 -147.3 247.2 -270.3 24.1 -71.5 29 -149.8 14.4 -223.6 -14.4 -72.7 -45.5 -139.2 -92.6 -197.6 -12.7 -15.8 -46.5 -49.9 -62.9 -63.5 -77.8 -64.4 -174.5 -100.3 -271.3 -100.8 -59.9 -0.3 -103.4 6.4 -154.5 24 -89.8 30.7 -172.5 94.7 -225.9 174.6 -32.7 49 -55.5 103.8 -66.8 160.3 -14.8 74.3 -10.6 147.6 12.7 218.9 21.6 66.1 58 126.7 105.6 175.8 70.8 72.8 166.4 121.3 263.5 133.3 31.2 3.9 69.1 4.8 98.4 2.2z"/>
  <path d="M438.9 546.8 l0 -300.9 47 0.2 46.9 0.3 0.3 300.7 0.2 300.6 -47.2 0 -47.2 0 0 -300.9z"/>
 </g>
</svg>
